<svg xmlns="http://www.w3.org/2000/svg" version="1.1" xmlns:xlink="http://www.w3.org/1999/xlink" xmlns:svgjs="http://svgjs.dev/svgjs" width="1000" height="726" viewBox="0 0 1000 726"><g transform="matrix(1,0,0,1,-0.2895669578670095,0.29392712550605893)"><svg viewBox="0 0 340 247" data-background-color="#ffffff" preserveAspectRatio="xMidYMid meet" height="726" width="1000" xmlns="http://www.w3.org/2000/svg" xmlns:xlink="http://www.w3.org/1999/xlink"><g id="tight-bounds" transform="matrix(1,0,0,1,0.09845276567477868,-0.09999999999999432)"><svg viewBox="0 0 339.80309446865044 247.2" height="247.2" width="339.80309446865044"><g><svg viewBox="0 0 395.52 287.732941787616" height="247.2" width="339.80309446865044"><g transform="matrix(1,0,0,1,0,132.66419347645493)"><svg viewBox="0 0 395.52 155.06874831116107" height="155.06874831116107" width="395.52"><g id="textblocktransform"><svg viewBox="0 0 395.52 155.06874831116107" height="155.06874831116107" width="395.52" id="textblock"><g><svg viewBox="0 0 395.52 108.0655737704918" height="108.0655737704918" width="395.52"><g transform="matrix(1,0,0,1,0,0)"><svg width="395.52" viewBox="0.85 -42.19 160.84 43.949999999999996" height="108.0655737704918" data-palette-color="#001f3f"><path d="M6.13-40.43L15.8-20.34 14.92-18.41 4.37-40.43 6.13-40.43ZM9.64-40.43L17.55-24.19 16.65-22.27 7.89-40.43 9.64-40.43ZM13.16-40.43L19.31-28.03 18.43-26.1 11.4-40.43 13.16-40.43ZM17.09 0L17.09-13.62 29.81-40.43 31.57-40.43 18.85-13.62 18.85 0 17.09 0ZM20.61 0L20.61-13.62 33.33-40.43 35.08-40.43 22.36-13.62 22.36 0 20.61 0ZM24.12 0L24.12-13.62 36.84-40.43 38.6-40.43 25.88-13.62 25.88 0 24.12 0ZM2.61-40.43L14.45-15.48 26.29-40.43 28.05-40.43 15.33-13.62 15.33 0 13.57 0 13.57-13.62 0.85-40.43 2.61-40.43ZM55.95-27.05Q53.12-24.22 53.12-20.21 53.12-16.21 55.95-13.38 58.79-10.55 62.79-10.55 66.79-10.55 69.63-13.38 72.46-16.21 72.46-20.21 72.46-24.22 69.63-27.05 66.79-29.88 62.79-29.88 58.79-29.88 55.95-27.05ZM52.27-15.78Q51.36-17.9 51.36-20.21 51.36-22.53 52.27-24.65 53.17-26.76 54.71-28.3 56.25-29.83 58.36-30.74 60.47-31.64 62.79-31.64 65.11-31.64 67.22-30.74 69.33-29.83 70.87-28.3 72.41-26.76 73.31-24.65 74.22-22.53 74.22-20.21 74.22-17.9 73.31-15.78 72.41-13.67 70.87-12.13 69.33-10.6 67.22-9.69 65.11-8.79 62.79-8.79 60.47-8.79 58.36-9.69 56.25-10.6 54.71-12.13 53.17-13.67 52.27-15.78ZM51.38-26.83Q49.61-23.8 49.61-20.21 49.61-16.63 51.38-13.6 53.15-10.57 56.17-8.8 59.2-7.03 62.79-7.03 66.38-7.03 69.41-8.8 72.43-10.57 74.2-13.6 75.97-16.63 75.97-20.21 75.97-23.8 74.2-26.83 72.43-29.86 69.41-31.63 66.38-33.4 62.79-33.4 59.2-33.4 56.17-31.63 53.15-29.86 51.38-26.83ZM49.85-12.72Q47.85-16.16 47.85-20.21 47.85-24.27 49.85-27.71 51.85-31.15 55.3-33.15 58.74-35.16 62.79-35.16 66.84-35.16 70.29-33.15 73.73-31.15 75.73-27.71 77.73-24.27 77.73-20.21 77.73-16.16 75.73-12.72 73.73-9.28 70.29-7.28 66.84-5.27 62.79-5.27 58.74-5.27 55.3-7.28 51.85-9.28 49.85-12.72ZM47.41-26.71Q46.09-23.61 46.09-20.21 46.09-16.82 47.41-13.72 48.73-10.62 50.96-8.39 53.2-6.15 56.3-4.83 59.4-3.52 62.79-3.52 66.18-3.52 69.28-4.83 72.39-6.15 74.62-8.39 76.85-10.62 78.17-13.72 79.49-16.82 79.49-20.21 79.49-23.61 78.17-26.71 76.85-29.81 74.62-32.04 72.39-34.28 69.28-35.6 66.18-36.91 62.79-36.91 59.4-36.91 56.3-35.6 53.2-34.28 50.96-32.04 48.73-29.81 47.41-26.71ZM46.81-10.96Q44.33-15.21 44.33-20.21 44.33-25.22 46.81-29.47 49.29-33.72 53.54-36.19 57.79-38.67 62.79-38.67 67.8-38.67 72.04-36.19 76.29-33.72 78.77-29.47 81.25-25.22 81.25-20.21 81.25-15.21 78.77-10.96 76.29-6.71 72.04-4.24 67.8-1.76 62.79-1.76 57.79-1.76 53.54-4.24 49.29-6.71 46.81-10.96ZM44.17-28.06Q42.58-24.32 42.58-20.21 42.58-16.11 44.17-12.37 45.77-8.62 48.48-5.91 51.19-3.2 54.94-1.6 58.69 0 62.79 0 66.89 0 70.64-1.6 74.39-3.2 77.1-5.91 79.81-8.62 81.41-12.37 83.01-16.11 83.01-20.21 83.01-24.32 81.41-28.06 79.81-31.81 77.1-34.52 74.39-37.23 70.64-38.83 66.89-40.43 62.79-40.43 58.69-40.43 54.94-38.83 51.19-37.23 48.48-34.52 45.77-31.81 44.17-28.06ZM42.56-11.68Q40.82-15.75 40.82-20.21 40.82-24.68 42.56-28.75 44.31-32.81 47.25-35.75 50.19-38.7 54.26-40.44 58.32-42.19 62.79-42.19 67.26-42.19 71.32-40.44 75.39-38.7 78.33-35.75 81.27-32.81 83.02-28.75 84.76-24.68 84.76-20.21 84.76-15.75 83.02-11.68 81.27-7.62 78.33-4.68 75.39-1.73 71.32 0.01 67.26 1.76 62.79 1.76 58.32 1.76 54.26 0.01 50.19-1.73 47.25-4.68 44.31-7.62 42.56-11.68ZM88.4 0L88.4-40.43 90.16-40.43 90.16 0 88.4 0ZM98.95 0L98.95-40.43 100.7-40.43 100.7-8.79 114.77-8.79 114.77-7.03 100.7-7.03 100.7-5.27 114.77-5.27 114.77-3.52 100.7-3.52 100.7-1.76 114.77-1.76 114.77 0 98.95 0ZM95.43 0L95.43-40.43 97.19-40.43 97.19 0 95.43 0ZM91.91 0L91.91-40.43 93.67-40.43 93.67 0 91.91 0ZM132.88-27.05Q130.05-24.22 130.05-20.21 130.05-16.21 132.88-13.38 135.71-10.55 139.71-10.55 143.72-10.55 146.55-13.38 149.38-16.21 149.38-20.21 149.38-24.22 146.55-27.05 143.72-29.88 139.71-29.88 135.71-29.88 132.88-27.05ZM129.19-15.78Q128.29-17.9 128.29-20.21 128.29-22.53 129.19-24.65 130.1-26.76 131.63-28.3 133.17-29.83 135.28-30.74 137.39-31.64 139.71-31.64 142.03-31.64 144.15-30.74 146.26-29.83 147.8-28.3 149.33-26.76 150.24-24.65 151.14-22.53 151.14-20.21 151.14-17.9 150.24-15.78 149.33-13.67 147.8-12.13 146.26-10.6 144.15-9.69 142.03-8.79 139.71-8.79 137.39-8.79 135.28-9.69 133.17-10.6 131.63-12.13 130.1-13.67 129.19-15.78ZM128.3-26.83Q126.53-23.8 126.53-20.21 126.53-16.63 128.3-13.6 130.07-10.57 133.1-8.8 136.13-7.03 139.71-7.03 143.3-7.03 146.33-8.8 149.36-10.57 151.13-13.6 152.9-16.63 152.9-20.21 152.9-23.8 151.13-26.83 149.36-29.86 146.33-31.63 143.3-33.4 139.71-33.4 136.13-33.4 133.1-31.63 130.07-29.86 128.3-26.83ZM126.77-12.72Q124.77-16.16 124.77-20.21 124.77-24.27 126.77-27.71 128.78-31.15 132.22-33.15 135.66-35.16 139.71-35.16 143.77-35.16 147.21-33.15 150.65-31.15 152.65-27.71 154.66-24.27 154.66-20.21 154.66-16.16 152.65-12.72 150.65-9.28 147.21-7.28 143.77-5.27 139.71-5.27 135.66-5.27 132.22-7.28 128.78-9.28 126.77-12.72ZM124.33-26.71Q123.01-23.61 123.01-20.21 123.01-16.82 124.33-13.72 125.65-10.62 127.89-8.39 130.12-6.15 133.22-4.83 136.32-3.52 139.71-3.52 143.11-3.52 146.21-4.83 149.31-6.15 151.54-8.39 153.78-10.62 155.1-13.72 156.41-16.82 156.41-20.21 156.41-23.61 155.1-26.71 153.78-29.81 151.54-32.04 149.31-34.28 146.21-35.6 143.11-36.91 139.71-36.91 136.32-36.91 133.22-35.6 130.12-34.28 127.89-32.04 125.65-29.81 124.33-26.71ZM123.74-10.96Q121.26-15.21 121.26-20.21 121.26-25.22 123.74-29.47 126.21-33.72 130.46-36.19 134.71-38.67 139.71-38.67 144.72-38.67 148.97-36.19 153.22-33.72 155.69-29.47 158.17-25.22 158.17-20.21 158.17-15.21 155.69-10.96 153.22-6.71 148.97-4.24 144.72-1.76 139.71-1.76 134.71-1.76 130.46-4.24 126.21-6.71 123.74-10.96ZM121.1-28.06Q119.5-24.32 119.5-20.21 119.5-16.11 121.1-12.37 122.7-8.62 125.41-5.91 128.12-3.2 131.87-1.6 135.61 0 139.71 0 143.82 0 147.56-1.6 151.31-3.2 154.02-5.91 156.73-8.62 158.33-12.37 159.93-16.11 159.93-20.21 159.93-24.32 158.33-28.06 156.73-31.81 154.02-34.52 151.31-37.23 147.56-38.83 143.82-40.43 139.71-40.43 135.61-40.43 131.87-38.83 128.12-37.23 125.41-34.52 122.7-31.81 121.1-28.06ZM119.49-11.68Q117.74-15.75 117.74-20.21 117.74-24.68 119.49-28.75 121.23-32.81 124.17-35.75 127.12-38.7 131.18-40.44 135.25-42.19 139.71-42.19 144.18-42.19 148.25-40.44 152.31-38.7 155.25-35.75 158.2-32.81 159.94-28.75 161.69-24.68 161.69-20.21 161.69-15.75 159.94-11.68 158.2-7.62 155.25-4.68 152.31-1.73 148.25 0.01 144.18 1.76 139.71 1.76 135.25 1.76 131.18 0.01 127.12-1.73 124.17-4.68 121.23-7.62 119.49-11.68Z" opacity="1" transform="matrix(1,0,0,1,0,0)" fill="#001f3f" class="wordmark-text-0" data-fill-palette-color="primary" id="text-0"></path></svg></g></svg></g><g transform="matrix(1,0,0,1,75.54432,133.57726216393442)"><svg viewBox="0 0 244.43135999999998 21.49148614722664" height="21.49148614722664" width="244.43135999999998"><g transform="matrix(1,0,0,1,0,0)"><svg width="244.43135999999998" viewBox="2 -36 534.51 47" height="21.49148614722664" data-palette-color="#00d1cd"><path d="M16.75 0L13.25 0 13.25-14 2-35 5.95-35 15-17.45 24.05-35 28-35 16.75-14 16.75 0ZM45 0.6L45 0.6Q41.55 0.6 38.9-1 36.25-2.6 34.75-5.53 33.25-8.45 33.25-12.4L33.25-12.4Q33.25-16.4 34.75-19.3 36.25-22.2 38.9-23.8 41.55-25.4 45-25.4L45-25.4Q48.45-25.4 51.1-23.8 53.75-22.2 55.25-19.3 56.75-16.4 56.75-12.4L56.75-12.4Q56.75-8.45 55.25-5.53 53.75-2.6 51.1-1 48.45 0.6 45 0.6ZM45-2.7L45-2.7Q47.3-2.7 49.12-3.75 50.95-4.8 52.05-6.95 53.15-9.1 53.15-12.4L53.15-12.4Q53.15-15.75 52.05-17.88 50.95-20 49.12-21.05 47.3-22.1 45-22.1L45-22.1Q42.75-22.1 40.9-21.05 39.05-20 37.95-17.88 36.85-15.75 36.85-12.4L36.85-12.4Q36.85-9.1 37.95-6.95 39.05-4.8 40.9-3.75 42.75-2.7 45-2.7ZM73.55 0.6L73.55 0.6Q69 0.6 66.75-2.08 64.5-4.75 64.5-9.65L64.5-9.65 64.5-24.8 68-24.8 68-10.05Q68-6.6 69.55-4.65 71.09-2.7 74.3-2.7L74.3-2.7Q77.4-2.7 79.59-4.83 81.8-6.95 81.8-10.95L81.8-10.95 81.8-24.8 85.3-24.8 85.3 0 82.45 0 82-3.75 81.8-3.75Q80.8-2 78.62-0.7 76.45 0.6 73.55 0.6ZM134.99 0.6L134.99 0.6Q130.79 0.6 127.77-1.68 124.74-3.95 123.12-8.03 121.49-12.1 121.49-17.5L121.49-17.5Q121.49-22.85 123.12-26.93 124.74-31 127.77-33.3 130.79-35.6 134.99-35.6L134.99-35.6Q139.24-35.6 142.24-33.3 145.24-31 146.87-26.93 148.49-22.85 148.49-17.5L148.49-17.5Q148.49-12.1 146.87-8.03 145.24-3.95 142.24-1.68 139.24 0.6 134.99 0.6ZM134.99-2.7L134.99-2.7Q139.44-2.7 142.17-6.58 144.89-10.45 144.89-17.5L144.89-17.5Q144.89-24.55 142.17-28.43 139.44-32.3 134.99-32.3L134.99-32.3Q130.59-32.3 127.84-28.43 125.09-24.55 125.09-17.5L125.09-17.5Q125.09-10.45 127.84-6.58 130.59-2.7 134.99-2.7ZM158.19 0L154.69 0 154.69-24.8 157.54-24.8 157.99-21.05 158.19-21.05Q159.19-22.8 161.36-24.1 163.54-25.4 166.44-25.4L166.44-25.4Q170.99-25.4 173.24-22.73 175.49-20.05 175.49-15.15L175.49-15.15 175.49 0 171.99 0 171.99-14.75Q171.99-18.2 170.44-20.15 168.89-22.1 165.69-22.1L165.69-22.1Q162.59-22.1 160.39-19.98 158.19-17.85 158.19-13.85L158.19-13.85 158.19 0ZM204.49 0L183.99 0 183.99-3 192.49-3 192.49-32Q192.49-33 191.49-33L191.49-33 184.99-33 184.99-36 192.49-36Q195.99-36 195.99-32.5L195.99-32.5 195.99-3 204.49-3 204.49 0ZM221.23 11L217.58 11 223.83-2.65 222.43-2.65 212.48-24.8 216.28-24.8 224.88-4.9 234.03-24.8 237.63-24.8 221.23 11ZM296.08 0L274.53 0 274.53-35 278.03-35 278.03-3.2 296.08-3.2 296.08 0ZM314.78-29.6L314.78-29.6Q313.53-29.6 312.6-30.53 311.68-31.45 311.68-32.7L311.68-32.7Q311.68-34 312.6-34.9 313.53-35.8 314.78-35.8L314.78-35.8Q316.08-35.8 316.98-34.9 317.88-34 317.88-32.7L317.88-32.7Q317.88-31.45 316.98-30.53 316.08-29.6 314.78-29.6ZM324.73 0L305.23 0 305.23-3 313.23-3 313.23-20.8Q313.23-21.8 312.23-21.8L312.23-21.8 306.23-21.8 306.23-24.8 313.23-24.8Q316.73-24.8 316.73-21.3L316.73-21.3 316.73-3 324.73-3 324.73 0ZM346.92 0L342.97 0 331.97-24.8 336.07-24.8 344.97-4 353.92-24.8 357.97-24.8 346.92 0ZM375.22 0.6L375.22 0.6Q371.77 0.6 369.12-1.03 366.47-2.65 364.95-5.58 363.42-8.5 363.42-12.45L363.42-12.45Q363.42-16.4 364.92-19.3 366.42-22.2 369.1-23.8 371.77-25.4 375.32-25.4L375.32-25.4Q378.92-25.4 381.42-23.78 383.92-22.15 385.22-19.55 386.52-16.95 386.52-13.95L386.52-13.95Q386.52-13.45 386.52-12.9 386.52-12.35 386.47-11.65L386.47-11.65 366.82-11.65Q366.97-8.6 368.2-6.63 369.42-4.65 371.3-3.68 373.17-2.7 375.22-2.7L375.22-2.7Q378.27-2.7 379.95-3.98 381.62-5.25 382.42-7.45L382.42-7.45 385.82-7.45Q385.02-4.1 382.4-1.75 379.77 0.6 375.22 0.6ZM375.17-22.2L375.17-22.2Q372.02-22.2 369.65-20.25 367.27-18.3 366.87-14.85L366.87-14.85 383.12-14.85Q382.92-18.35 380.75-20.28 378.57-22.2 375.17-22.2ZM434.97 0.6L434.97 0.6Q430.77 0.6 427.74-1.68 424.72-3.95 423.09-8.03 421.47-12.1 421.47-17.5L421.47-17.5Q421.47-22.85 423.09-26.93 424.72-31 427.74-33.3 430.77-35.6 434.97-35.6L434.97-35.6Q439.22-35.6 442.22-33.3 445.22-31 446.84-26.93 448.47-22.85 448.47-17.5L448.47-17.5Q448.47-12.1 446.84-8.03 445.22-3.95 442.22-1.68 439.22 0.6 434.97 0.6ZM434.97-2.7L434.97-2.7Q439.42-2.7 442.14-6.58 444.87-10.45 444.87-17.5L444.87-17.5Q444.87-24.55 442.14-28.43 439.42-32.3 434.97-32.3L434.97-32.3Q430.57-32.3 427.82-28.43 425.07-24.55 425.07-17.5L425.07-17.5Q425.07-10.45 427.82-6.58 430.57-2.7 434.97-2.7ZM458.16 0L454.66 0 454.66-24.8 457.51-24.8 457.96-21.05 458.16-21.05Q459.16-22.8 461.34-24.1 463.51-25.4 466.41-25.4L466.41-25.4Q470.96-25.4 473.21-22.73 475.46-20.05 475.46-15.15L475.46-15.15 475.46 0 471.96 0 471.96-14.75Q471.96-18.2 470.41-20.15 468.86-22.1 465.66-22.1L465.66-22.1Q462.56-22.1 460.36-19.98 458.16-17.85 458.16-13.85L458.16-13.85 458.16 0ZM495.36 0.6L495.36 0.6Q492.16 0.6 489.56-0.93 486.96-2.45 485.41-5.35 483.86-8.25 483.86-12.4L483.86-12.4Q483.86-16.55 485.44-19.45 487.01-22.35 489.61-23.88 492.21-25.4 495.36-25.4L495.36-25.4Q499.91-25.4 502.54-23.15 505.16-20.9 505.91-17.2L505.91-17.2 502.41-17.2Q501.76-19.45 499.94-20.78 498.11-22.1 495.36-22.1L495.36-22.1Q493.31-22.1 491.51-21.05 489.71-20 488.59-17.88 487.46-15.75 487.46-12.4L487.46-12.4Q487.46-9.1 488.59-6.93 489.71-4.75 491.51-3.7 493.31-2.65 495.36-2.65L495.36-2.65Q498.31-2.65 500.06-4.03 501.81-5.4 502.41-7.6L502.41-7.6 505.91-7.6Q505.01-3.75 502.29-1.58 499.56 0.6 495.36 0.6ZM525.21 0.6L525.21 0.6Q521.76 0.6 519.11-1.03 516.46-2.65 514.93-5.58 513.41-8.5 513.41-12.45L513.41-12.45Q513.41-16.4 514.91-19.3 516.41-22.2 519.08-23.8 521.76-25.4 525.31-25.4L525.31-25.4Q528.91-25.4 531.41-23.78 533.91-22.15 535.21-19.55 536.51-16.95 536.51-13.95L536.51-13.95Q536.51-13.45 536.51-12.9 536.51-12.35 536.46-11.65L536.46-11.65 516.81-11.65Q516.96-8.6 518.18-6.63 519.41-4.65 521.28-3.68 523.16-2.7 525.21-2.7L525.21-2.7Q528.26-2.7 529.93-3.98 531.61-5.25 532.41-7.45L532.41-7.45 535.81-7.45Q535.01-4.1 532.38-1.75 529.76 0.6 525.21 0.6ZM525.16-22.2L525.16-22.2Q522.01-22.2 519.63-20.25 517.26-18.3 516.86-14.85L516.86-14.85 533.11-14.85Q532.91-18.35 530.73-20.28 528.56-22.2 525.16-22.2Z" opacity="1" transform="matrix(1,0,0,1,0,0)" fill="#00d1cd" class="slogan-text-1" data-fill-palette-color="secondary" id="text-1"></path></svg></g></svg></g></svg></g></svg></g><g transform="matrix(1,0,0,1,144.18355853605226,0)"><svg viewBox="0 0 107.15288292789545 107.15250508301231" height="107.15250508301231" width="107.15288292789545"><g><svg xmlns="http://www.w3.org/2000/svg" xmlns:xlink="http://www.w3.org/1999/xlink" version="1.1" x="0" y="0" viewBox="7.734947788353146 7.7352458618416104 84.53054425048146 84.53024617699299" enable-background="new 0 0 100 100" xml:space="preserve" height="107.15250508301231" width="107.15288292789545" class="icon-icon-0" data-fill-palette-color="accent" id="icon-0"><g fill="#00d1cd" data-fill-palette-color="accent"><g fill="#00d1cd" data-fill-palette-color="accent"><g fill="#00d1cd" data-fill-palette-color="accent"><path d="M28.368 14.767C42.162 16.327 48.04 25.762 49.69 30.695c1.07 3.198 1.472 5.094 1.472 9.275 0 0.817 0.044 2.076-1.054 2.216-0.77 0.099-1.209-0.509-1.273-1.182-0.289-3.026-1.159-6.569-4.008-9.85-2.253-2.594-7.472-7.802-16.652-7.021-2.669 0.228-5.052-1.868-5.129-4.564C22.964 16.703 25.531 14.446 28.368 14.767z" fill="#00d1cd" data-fill-palette-color="accent"></path><path d="M71.633 85.232c-13.794-1.561-19.671-10.995-21.322-15.929-1.07-3.198-1.472-5.094-1.472-9.275 0-0.817-0.044-2.076 1.054-2.216 0.77-0.099 1.209 0.509 1.273 1.182 0.289 3.026 1.159 6.569 4.008 9.85 2.253 2.594 7.472 7.802 16.652 7.021 2.669-0.228 5.052 1.868 5.129 4.564C77.037 83.296 74.47 85.553 71.633 85.232z" fill="#00d1cd" data-fill-palette-color="accent"></path></g><g fill="#00d1cd" data-fill-palette-color="accent"><path d="M14.768 71.633c1.56-13.794 10.995-19.672 15.928-21.322 3.198-1.07 5.094-1.472 9.276-1.472 0.817 0 2.076-0.045 2.216 1.054 0.098 0.77-0.509 1.209-1.182 1.273-3.026 0.288-6.569 1.159-9.849 4.008-2.594 2.254-7.802 7.473-7.021 16.652 0.228 2.669-1.868 5.052-4.564 5.129C16.704 77.036 14.447 74.47 14.768 71.633z" fill="#00d1cd" data-fill-palette-color="accent"></path><path d="M85.233 28.367c-1.56 13.794-10.995 19.672-15.928 21.322-3.198 1.07-5.094 1.472-9.276 1.472-0.817 0-2.076 0.045-2.216-1.054-0.098-0.77 0.509-1.209 1.182-1.273 3.026-0.288 6.569-1.159 9.849-4.008 2.594-2.254 7.802-7.473 7.021-16.652-0.228-2.669 1.868-5.052 4.564-5.129C83.297 22.964 85.554 25.53 85.233 28.367z" fill="#00d1cd" data-fill-palette-color="accent"></path></g></g><g fill="#00d1cd" data-fill-palette-color="accent"><g fill="#00d1cd" data-fill-palette-color="accent"><path d="M13.65 30.304c12.726-5.546 22.533-0.314 26.43 3.133 2.526 2.234 3.821 3.676 5.912 7.297 0.409 0.708 1.077 1.775 0.195 2.446-0.617 0.47-1.302 0.164-1.693-0.387-1.763-2.477-4.289-5.109-8.396-6.525-3.249-1.12-10.373-3.021-17.931 2.246-2.198 1.531-5.309 0.907-6.724-1.389C9.938 34.682 11.033 31.444 13.65 30.304z" fill="#00d1cd" data-fill-palette-color="accent"></path><path d="M86.351 69.695c-12.726 5.546-22.533 0.314-26.43-3.133-2.526-2.234-3.821-3.676-5.912-7.297-0.409-0.708-1.077-1.775-0.196-2.446 0.618-0.47 1.302-0.164 1.694 0.387 1.763 2.477 4.289 5.109 8.396 6.525 3.249 1.12 10.373 3.021 17.931-2.245 2.198-1.532 5.309-0.908 6.724 1.388C90.063 65.317 88.968 68.555 86.351 69.695z" fill="#00d1cd" data-fill-palette-color="accent"></path></g><g fill="#00d1cd" data-fill-palette-color="accent"><path d="M30.304 86.351c-5.546-12.726-0.314-22.533 3.133-26.43 2.235-2.525 3.676-3.821 7.298-5.912 0.708-0.409 1.775-1.076 2.445-0.195 0.47 0.617 0.164 1.302-0.387 1.693-2.477 1.764-5.109 4.289-6.525 8.396-1.12 3.248-3.021 10.372 2.246 17.931 1.531 2.198 0.908 5.31-1.389 6.725C34.683 90.062 31.445 88.968 30.304 86.351z" fill="#00d1cd" data-fill-palette-color="accent"></path><path d="M69.696 13.649c5.546 12.726 0.314 22.533-3.133 26.43-2.234 2.526-3.675 3.821-7.297 5.913-0.708 0.408-1.775 1.076-2.446 0.195-0.47-0.618-0.163-1.303 0.388-1.694 2.477-1.763 5.109-4.288 6.525-8.396 1.12-3.249 3.021-10.372-2.246-17.932-1.532-2.198-0.908-5.309 1.388-6.724C65.318 9.938 68.556 11.032 69.696 13.649z" fill="#00d1cd" data-fill-palette-color="accent"></path></g></g><g fill="#00d1cd" data-fill-palette-color="accent"><g fill="#00d1cd" data-fill-palette-color="accent"><path d="M8.671 51.118c8.248-11.166 19.357-11.539 24.456-10.502 3.305 0.672 5.147 1.272 8.769 3.363 0.708 0.408 1.82 0.999 1.392 2.021-0.299 0.716-1.045 0.793-1.66 0.512-2.765-1.263-6.269-2.28-10.533-1.453-3.374 0.654-10.494 2.57-14.406 10.911-1.138 2.425-4.144 3.44-6.518 2.159C7.646 56.766 6.976 53.414 8.671 51.118z" fill="#00d1cd" data-fill-palette-color="accent"></path><path d="M91.329 48.882C83.081 60.047 71.971 60.42 66.874 59.383c-3.305-0.672-5.147-1.272-8.769-3.363-0.708-0.408-1.82-0.999-1.393-2.021 0.3-0.716 1.046-0.793 1.66-0.512 2.766 1.264 6.269 2.28 10.534 1.453 3.373-0.654 10.493-2.569 14.406-10.91 1.138-2.426 4.144-3.441 6.517-2.16C92.354 43.233 93.025 46.585 91.329 48.882z" fill="#00d1cd" data-fill-palette-color="accent"></path></g><g fill="#00d1cd" data-fill-palette-color="accent"><path d="M51.119 91.329C39.953 83.081 39.58 71.972 40.617 66.874c0.673-3.305 1.272-5.147 3.364-8.77 0.409-0.708 1-1.819 2.02-1.392 0.716 0.3 0.793 1.045 0.512 1.66-1.263 2.765-2.28 6.269-1.453 10.533 0.654 3.374 2.57 10.493 10.911 14.406 2.425 1.138 3.44 4.144 2.159 6.518C56.766 92.354 53.415 93.025 51.119 91.329z" fill="#00d1cd" data-fill-palette-color="accent"></path><path d="M48.882 8.672c11.166 8.247 11.538 19.356 10.501 24.455-0.672 3.305-1.271 5.147-3.362 8.77-0.409 0.707-1 1.819-2.021 1.392-0.716-0.3-0.792-1.046-0.511-1.661 1.263-2.765 2.28-6.268 1.453-10.533-0.655-3.373-2.57-10.492-10.911-14.406-2.426-1.137-3.44-4.144-2.159-6.517C43.234 7.646 46.585 6.976 48.882 8.672z" fill="#00d1cd" data-fill-palette-color="accent"></path></g></g></g></svg></g></svg></g><g></g></svg></g><defs></defs></svg><rect width="339.80309446865044" height="247.2" fill="none" stroke="none" visibility="hidden"></rect></g></svg></g></svg>