<svg xmlns="http://www.w3.org/2000/svg" version="1.1" xmlns:xlink="http://www.w3.org/1999/xlink" xmlns:svgjs="http://svgjs.dev/svgjs" width="1000" height="1000" viewBox="0 0 1000 1000"><rect width="1000" height="1000" fill="#ffffff"></rect><g transform="matrix(0.7,0,0,0.7,149.57575757575756,404.8578020643595)"><svg viewBox="0 0 396 108" data-background-color="#ffffff" preserveAspectRatio="xMidYMid meet" height="272" width="1000" xmlns="http://www.w3.org/2000/svg" xmlns:xlink="http://www.w3.org/1999/xlink"><g id="tight-bounds" transform="matrix(1,0,0,1,0.2400000000000091,-0.03278688524591189)"><svg viewBox="0 0 395.52 108.0655737704918" height="108.0655737704918" width="395.52"><g><svg viewBox="0 0 395.52 108.0655737704918" height="108.0655737704918" width="395.52"><g><svg viewBox="0 0 395.52 108.0655737704918" height="108.0655737704918" width="395.52"><g id="textblocktransform"><svg viewBox="0 0 395.52 108.0655737704918" height="108.0655737704918" width="395.52" id="textblock"><g><svg viewBox="0 0 395.52 108.0655737704918" height="108.0655737704918" width="395.52"><g transform="matrix(1,0,0,1,0,0)"><svg width="395.52" viewBox="0.85 -42.19 160.84 43.949999999999996" height="108.0655737704918" data-palette-color="#001f3f"><path d="M6.13-40.43L15.8-20.34 14.92-18.41 4.37-40.43 6.13-40.43ZM9.64-40.43L17.55-24.19 16.65-22.27 7.89-40.43 9.64-40.43ZM13.16-40.43L19.31-28.03 18.43-26.1 11.4-40.43 13.16-40.43ZM17.09 0L17.09-13.62 29.81-40.43 31.57-40.43 18.85-13.62 18.85 0 17.09 0ZM20.61 0L20.61-13.62 33.33-40.43 35.08-40.43 22.36-13.62 22.36 0 20.61 0ZM24.12 0L24.12-13.62 36.84-40.43 38.6-40.43 25.88-13.62 25.88 0 24.12 0ZM2.61-40.43L14.45-15.48 26.29-40.43 28.05-40.43 15.33-13.62 15.33 0 13.57 0 13.57-13.62 0.85-40.43 2.61-40.43ZM55.95-27.05Q53.12-24.22 53.12-20.21 53.12-16.21 55.95-13.38 58.79-10.55 62.79-10.55 66.79-10.55 69.63-13.38 72.46-16.21 72.46-20.21 72.46-24.22 69.63-27.05 66.79-29.88 62.79-29.88 58.79-29.88 55.95-27.05ZM52.27-15.78Q51.36-17.9 51.36-20.21 51.36-22.53 52.27-24.65 53.17-26.76 54.71-28.3 56.25-29.83 58.36-30.74 60.47-31.64 62.79-31.64 65.11-31.64 67.22-30.74 69.33-29.83 70.87-28.3 72.41-26.76 73.31-24.65 74.22-22.53 74.22-20.21 74.22-17.9 73.31-15.78 72.41-13.67 70.87-12.13 69.33-10.6 67.22-9.69 65.11-8.79 62.79-8.79 60.47-8.79 58.36-9.69 56.25-10.6 54.71-12.13 53.17-13.67 52.27-15.78ZM51.38-26.83Q49.61-23.8 49.61-20.21 49.61-16.63 51.38-13.6 53.15-10.57 56.17-8.8 59.2-7.03 62.79-7.03 66.38-7.03 69.41-8.8 72.43-10.57 74.2-13.6 75.97-16.63 75.97-20.21 75.97-23.8 74.2-26.83 72.43-29.86 69.41-31.63 66.38-33.4 62.79-33.4 59.2-33.4 56.17-31.63 53.15-29.86 51.38-26.83ZM49.85-12.72Q47.85-16.16 47.85-20.21 47.85-24.27 49.85-27.71 51.85-31.15 55.3-33.15 58.74-35.16 62.79-35.16 66.84-35.16 70.29-33.15 73.73-31.15 75.73-27.71 77.73-24.27 77.73-20.21 77.73-16.16 75.73-12.72 73.73-9.28 70.29-7.28 66.84-5.27 62.79-5.27 58.74-5.27 55.3-7.28 51.85-9.28 49.85-12.72ZM47.41-26.71Q46.09-23.61 46.09-20.21 46.09-16.82 47.41-13.72 48.73-10.62 50.96-8.39 53.2-6.15 56.3-4.83 59.4-3.52 62.79-3.52 66.18-3.52 69.28-4.83 72.39-6.15 74.62-8.39 76.85-10.62 78.17-13.72 79.49-16.82 79.49-20.21 79.49-23.61 78.17-26.71 76.85-29.81 74.62-32.04 72.39-34.28 69.28-35.6 66.18-36.91 62.79-36.91 59.4-36.91 56.3-35.6 53.2-34.28 50.96-32.04 48.73-29.81 47.41-26.71ZM46.81-10.96Q44.33-15.21 44.33-20.21 44.33-25.22 46.81-29.47 49.29-33.72 53.54-36.19 57.79-38.67 62.79-38.67 67.8-38.67 72.04-36.19 76.29-33.72 78.77-29.47 81.25-25.22 81.25-20.21 81.25-15.21 78.77-10.96 76.29-6.71 72.04-4.24 67.8-1.76 62.79-1.76 57.79-1.76 53.54-4.24 49.29-6.71 46.81-10.96ZM44.17-28.06Q42.58-24.32 42.58-20.21 42.58-16.11 44.17-12.37 45.77-8.62 48.48-5.91 51.19-3.2 54.94-1.6 58.69 0 62.79 0 66.89 0 70.64-1.6 74.39-3.2 77.1-5.91 79.81-8.62 81.41-12.37 83.01-16.11 83.01-20.21 83.01-24.32 81.41-28.06 79.81-31.81 77.1-34.52 74.39-37.23 70.64-38.83 66.89-40.43 62.79-40.43 58.69-40.43 54.94-38.83 51.19-37.23 48.48-34.52 45.77-31.81 44.17-28.06ZM42.56-11.68Q40.82-15.75 40.82-20.21 40.82-24.68 42.56-28.75 44.31-32.81 47.25-35.75 50.19-38.7 54.26-40.44 58.32-42.19 62.79-42.19 67.26-42.19 71.32-40.44 75.39-38.7 78.33-35.75 81.27-32.81 83.02-28.75 84.76-24.68 84.76-20.21 84.76-15.75 83.02-11.68 81.27-7.62 78.33-4.68 75.39-1.73 71.32 0.01 67.26 1.76 62.79 1.76 58.32 1.76 54.26 0.01 50.19-1.73 47.25-4.68 44.31-7.62 42.56-11.68ZM88.4 0L88.4-40.43 90.16-40.43 90.16 0 88.4 0ZM98.95 0L98.95-40.43 100.7-40.43 100.7-8.79 114.77-8.79 114.77-7.03 100.7-7.03 100.7-5.27 114.77-5.27 114.77-3.52 100.7-3.52 100.7-1.76 114.77-1.76 114.77 0 98.95 0ZM95.43 0L95.43-40.43 97.19-40.43 97.19 0 95.43 0ZM91.91 0L91.91-40.43 93.67-40.43 93.67 0 91.91 0ZM132.88-27.05Q130.05-24.22 130.05-20.21 130.05-16.21 132.88-13.38 135.71-10.55 139.71-10.55 143.72-10.55 146.55-13.38 149.38-16.21 149.38-20.21 149.38-24.22 146.55-27.05 143.72-29.88 139.71-29.88 135.71-29.88 132.88-27.05ZM129.19-15.78Q128.29-17.9 128.29-20.21 128.29-22.53 129.19-24.65 130.1-26.76 131.63-28.3 133.17-29.83 135.28-30.74 137.39-31.64 139.71-31.64 142.03-31.64 144.15-30.74 146.26-29.83 147.8-28.3 149.33-26.76 150.24-24.65 151.14-22.53 151.14-20.21 151.14-17.9 150.24-15.78 149.33-13.67 147.8-12.13 146.26-10.6 144.15-9.69 142.03-8.79 139.71-8.79 137.39-8.79 135.28-9.69 133.17-10.6 131.63-12.13 130.1-13.67 129.19-15.78ZM128.3-26.83Q126.53-23.8 126.53-20.21 126.53-16.63 128.3-13.6 130.07-10.57 133.1-8.8 136.13-7.03 139.71-7.03 143.3-7.03 146.33-8.8 149.36-10.57 151.13-13.6 152.9-16.63 152.9-20.21 152.9-23.8 151.13-26.83 149.36-29.86 146.33-31.63 143.3-33.4 139.71-33.4 136.13-33.4 133.1-31.63 130.07-29.86 128.3-26.83ZM126.77-12.72Q124.77-16.16 124.77-20.21 124.77-24.27 126.77-27.71 128.78-31.15 132.22-33.15 135.66-35.16 139.71-35.16 143.77-35.16 147.21-33.15 150.65-31.15 152.65-27.71 154.66-24.27 154.66-20.21 154.66-16.16 152.65-12.72 150.65-9.28 147.21-7.28 143.77-5.27 139.71-5.27 135.66-5.27 132.22-7.28 128.78-9.28 126.77-12.72ZM124.33-26.71Q123.01-23.61 123.01-20.21 123.01-16.82 124.33-13.72 125.65-10.62 127.89-8.39 130.12-6.15 133.22-4.83 136.32-3.52 139.71-3.52 143.11-3.52 146.21-4.83 149.31-6.15 151.54-8.39 153.78-10.62 155.1-13.72 156.41-16.82 156.41-20.21 156.41-23.61 155.1-26.71 153.78-29.81 151.54-32.04 149.31-34.28 146.21-35.6 143.11-36.91 139.71-36.91 136.32-36.91 133.22-35.6 130.12-34.28 127.89-32.04 125.65-29.81 124.33-26.71ZM123.74-10.96Q121.26-15.21 121.26-20.21 121.26-25.22 123.74-29.47 126.21-33.72 130.46-36.19 134.71-38.67 139.71-38.67 144.72-38.67 148.97-36.19 153.22-33.72 155.69-29.47 158.17-25.22 158.17-20.21 158.17-15.21 155.69-10.96 153.22-6.71 148.97-4.24 144.72-1.76 139.71-1.76 134.71-1.76 130.46-4.24 126.21-6.71 123.74-10.96ZM121.1-28.06Q119.5-24.32 119.5-20.21 119.5-16.11 121.1-12.37 122.7-8.62 125.41-5.91 128.12-3.2 131.87-1.6 135.61 0 139.71 0 143.82 0 147.56-1.6 151.31-3.2 154.02-5.91 156.73-8.62 158.33-12.37 159.93-16.11 159.93-20.21 159.93-24.32 158.33-28.06 156.73-31.81 154.02-34.52 151.31-37.23 147.56-38.83 143.82-40.43 139.71-40.43 135.61-40.43 131.87-38.83 128.12-37.23 125.41-34.52 122.7-31.81 121.1-28.06ZM119.49-11.68Q117.74-15.75 117.74-20.21 117.74-24.68 119.49-28.75 121.23-32.81 124.17-35.75 127.12-38.7 131.18-40.44 135.25-42.19 139.71-42.19 144.18-42.19 148.25-40.44 152.31-38.7 155.25-35.75 158.2-32.81 159.94-28.75 161.69-24.68 161.69-20.21 161.69-15.75 159.94-11.68 158.2-7.62 155.25-4.68 152.31-1.73 148.25 0.01 144.18 1.76 139.71 1.76 135.25 1.76 131.18 0.01 127.12-1.73 124.17-4.68 121.23-7.62 119.49-11.68Z" opacity="1" transform="matrix(1,0,0,1,0,0)" fill="#000000" class="wordmark-text-0" data-fill-palette-color="primary" id="text-0"></path></svg></g></svg></g></svg></g></svg></g><g></g></svg></g><defs></defs></svg><rect width="395.52" height="108.0655737704918" fill="none" stroke="none" visibility="hidden"></rect></g></svg></g></svg>